<svg width="152" height="25" viewBox="0 0 152 25" fill="none" xmlns="http://www.w3.org/2000/svg">
<path d="M15.3637 9.23431C15.2145 8.71584 15.005 8.25775 14.7351 7.86002C14.4652 7.45519 14.135 7.11428 13.7444 6.83729C13.3608 6.5532 12.9205 6.33658 12.4233 6.18743C11.9333 6.03829 11.3899 5.96371 10.7934 5.96371C9.6783 5.96371 8.69819 6.2407 7.85302 6.79468C7.01495 7.34866 6.36154 8.15476 5.89279 9.213C5.42404 10.2641 5.18966 11.5497 5.18966 13.0695C5.18966 14.5894 5.42049 15.882 5.88214 16.9474C6.34378 18.0127 6.99719 18.8259 7.84236 19.387C8.68753 19.941 9.6854 20.218 10.836 20.218C11.88 20.218 12.7713 20.0333 13.51 19.664C14.2557 19.2876 14.8239 18.7585 15.2145 18.0766C15.6122 17.3948 15.8111 16.5887 15.8111 15.6583L16.7486 15.7968H11.1236V12.3238H20.2536V15.0724C20.2536 16.99 19.8488 18.6377 19.0391 20.0156C18.2294 21.3863 17.1144 22.4445 15.6939 23.1903C14.2735 23.9289 12.6471 24.2982 10.8147 24.2982C8.76921 24.2982 6.97233 23.8472 5.42404 22.9452C3.87574 22.0362 2.66836 20.7471 1.80188 19.0781C0.942505 17.4019 0.512817 15.4133 0.512817 13.1122C0.512817 11.3437 0.768499 9.76698 1.27986 8.38204C1.79833 6.98999 2.52276 5.81101 3.45316 4.84511C4.38356 3.8792 5.46665 3.14411 6.70245 2.63985C7.93824 2.13559 9.27702 1.88346 10.7188 1.88346C11.9546 1.88346 13.1051 2.06456 14.1705 2.42678C15.2358 2.78189 16.1804 3.28616 17.0043 3.93956C17.8353 4.59297 18.5135 5.37067 19.0391 6.27266C19.5647 7.16755 19.902 8.15476 20.0512 9.23431H15.3637Z" fill="#5E5992"/>
<path d="M34.127 17.0326V7.6363H38.6653V23.9999H34.3081V21.0276H34.1376C33.7683 21.9864 33.154 22.757 32.2946 23.3394C31.4423 23.9218 30.4018 24.213 29.1732 24.213C28.0794 24.213 27.117 23.9644 26.2861 23.4673C25.4551 22.9701 24.8053 22.2634 24.3365 21.3472C23.8749 20.431 23.6405 19.3337 23.6334 18.0553V7.6363H28.1717V17.2457C28.1788 18.2116 28.4381 18.9751 28.9494 19.5362C29.4608 20.0972 30.1462 20.3778 31.0055 20.3778C31.5524 20.3778 32.0638 20.2535 32.5396 20.0049C33.0155 19.7492 33.399 19.3728 33.6902 18.8756C33.9885 18.3785 34.1341 17.7641 34.127 17.0326Z" fill="#5E5992"/>
<path d="M42.2955 23.9999V7.6363H46.8338V23.9999H42.2955ZM44.5753 5.52692C43.9006 5.52692 43.3218 5.3032 42.8388 4.85576C42.363 4.40121 42.125 3.85789 42.125 3.22579C42.125 2.60079 42.363 2.06456 42.8388 1.61712C43.3218 1.16258 43.9006 0.935303 44.5753 0.935303C45.25 0.935303 45.8253 1.16258 46.3012 1.61712C46.7841 2.06456 47.0256 2.60079 47.0256 3.22579C47.0256 3.85789 46.7841 4.40121 46.3012 4.85576C45.8253 5.3032 45.25 5.52692 44.5753 5.52692Z" fill="#5E5992"/>
<path d="M59.1732 7.6363V11.0454H49.3187V7.6363H59.1732ZM51.556 3.71584H56.0943V18.9715C56.0943 19.3906 56.1582 19.7173 56.2861 19.9516C56.4139 20.1789 56.5915 20.3387 56.8187 20.431C57.0531 20.5234 57.323 20.5695 57.6284 20.5695C57.8415 20.5695 58.0545 20.5518 58.2676 20.5163C58.4807 20.4737 58.644 20.4417 58.7577 20.4204L59.4714 23.7975C59.2442 23.8685 58.9246 23.9502 58.5126 24.0425C58.1007 24.142 57.6 24.2023 57.0105 24.2237C55.9168 24.2663 54.958 24.1207 54.1341 23.7869C53.3173 23.4531 52.6817 22.9346 52.2271 22.2315C51.7726 21.5283 51.5489 20.6406 51.556 19.5681V3.71584Z" fill="#5E5992"/>
<path d="M66.7957 24.3089C65.7516 24.3089 64.8212 24.1278 64.0045 23.7656C63.1877 23.3962 62.5414 22.8529 62.0656 22.1356C61.5968 21.4112 61.3624 20.5092 61.3624 19.4296C61.3624 18.5205 61.5293 17.757 61.8631 17.1391C62.1969 16.5212 62.6515 16.0241 63.2268 15.6477C63.8021 15.2712 64.4555 14.9872 65.187 14.7954C65.9256 14.6036 66.6998 14.4687 67.5094 14.3906C68.4611 14.2911 69.2282 14.1988 69.8106 14.1136C70.393 14.0212 70.8156 13.8863 71.0783 13.7087C71.3411 13.5312 71.4725 13.2684 71.4725 12.9204V12.8565C71.4725 12.1818 71.2594 11.6597 70.8333 11.2904C70.4143 10.9211 69.8177 10.7364 69.0435 10.7364C68.2268 10.7364 67.5769 10.9175 67.094 11.2798C66.611 11.6349 66.2914 12.0823 66.1352 12.6221L61.9377 12.2812C62.1508 11.2869 62.5698 10.4275 63.1948 9.70306C63.8198 8.97152 64.6259 8.41044 65.6131 8.01982C66.6075 7.62209 67.758 7.42323 69.0648 7.42323C69.9739 7.42323 70.844 7.52976 71.6749 7.74283C72.513 7.9559 73.2552 8.28616 73.9015 8.7336C74.5549 9.18104 75.0698 9.75633 75.4462 10.4595C75.8227 11.1555 76.0109 11.99 76.0109 12.963V23.9999H71.7069V21.7308H71.579C71.3163 22.2421 70.9647 22.6931 70.5244 23.0837C70.084 23.4673 69.5549 23.7691 68.937 23.9893C68.3191 24.2023 67.6053 24.3089 66.7957 24.3089ZM68.0954 21.1768C68.763 21.1768 69.3525 21.0454 69.8638 20.7826C70.3752 20.5127 70.7765 20.1505 71.0677 19.696C71.3589 19.2414 71.5045 18.7265 71.5045 18.1512V16.4147C71.3624 16.507 71.1671 16.5923 70.9185 16.6704C70.6771 16.7414 70.4036 16.8089 70.0982 16.8728C69.7928 16.9296 69.4874 16.9829 69.182 17.0326C68.8766 17.0752 68.5996 17.1143 68.3511 17.1498C67.8184 17.2279 67.3532 17.3522 66.9555 17.5227C66.5577 17.6931 66.2488 17.9239 66.0286 18.2151C65.8084 18.4992 65.6984 18.8543 65.6984 19.2805C65.6984 19.8984 65.9221 20.3707 66.3695 20.6974C66.8241 21.017 67.3994 21.1768 68.0954 21.1768Z" fill="#5E5992"/>
<path d="M79.5318 23.9999V7.6363H83.9317V10.4914H84.1021C84.4004 9.47579 84.9011 8.70874 85.6043 8.19028C86.3074 7.66471 87.117 7.40192 88.0332 7.40192C88.2605 7.40192 88.5055 7.41613 88.7683 7.44454C89.0311 7.47295 89.2619 7.51201 89.4608 7.56172V11.5887C89.2477 11.5248 88.953 11.468 88.5766 11.4183C88.2001 11.3685 87.8557 11.3437 87.5432 11.3437C86.8756 11.3437 86.279 11.4893 85.7534 11.7805C85.2349 12.0646 84.823 12.4623 84.5176 12.9737C84.2193 13.485 84.0702 14.0745 84.0702 14.7421V23.9999H79.5318Z" fill="#5E5992"/>
<path d="M91.8924 2.18175H97.5814L103.59 16.8408H103.846L109.854 2.18175H115.543V23.9999H111.069V9.79894H110.887L105.241 23.8934H102.194L96.548 9.74567H96.3669V23.9999H91.8924V2.18175Z" fill="#5E5992"/>
<path d="M123.925 24.3089C122.881 24.3089 121.95 24.1278 121.133 23.7656C120.317 23.3962 119.67 22.8529 119.194 22.1356C118.726 21.4112 118.491 20.5092 118.491 19.4296C118.491 18.5205 118.658 17.757 118.992 17.1391C119.326 16.5212 119.78 16.0241 120.356 15.6477C120.931 15.2712 121.584 14.9872 122.316 14.7954C123.055 14.6036 123.829 14.4687 124.638 14.3906C125.59 14.2911 126.357 14.1988 126.939 14.1136C127.522 14.0212 127.944 13.8863 128.207 13.7087C128.47 13.5312 128.601 13.2684 128.601 12.9204V12.8565C128.601 12.1818 128.388 11.6597 127.962 11.2904C127.543 10.9211 126.947 10.7364 126.172 10.7364C125.356 10.7364 124.706 10.9175 124.223 11.2798C123.74 11.6349 123.42 12.0823 123.264 12.6221L119.067 12.2812C119.28 11.2869 119.699 10.4275 120.324 9.70306C120.949 8.97152 121.755 8.41044 122.742 8.01982C123.736 7.62209 124.887 7.42323 126.194 7.42323C127.103 7.42323 127.973 7.52976 128.804 7.74283C129.642 7.9559 130.384 8.28616 131.03 8.7336C131.684 9.18104 132.199 9.75633 132.575 10.4595C132.952 11.1555 133.14 11.99 133.14 12.963V23.9999H128.836V21.7308H128.708C128.445 22.2421 128.094 22.6931 127.653 23.0837C127.213 23.4673 126.684 23.7691 126.066 23.9893C125.448 24.2023 124.734 24.3089 123.925 24.3089ZM125.224 21.1768C125.892 21.1768 126.481 21.0454 126.993 20.7826C127.504 20.5127 127.905 20.1505 128.197 19.696C128.488 19.2414 128.633 18.7265 128.633 18.1512V16.4147C128.491 16.507 128.296 16.5923 128.047 16.6704C127.806 16.7414 127.533 16.8089 127.227 16.8728C126.922 16.9296 126.616 16.9829 126.311 17.0326C126.006 17.0752 125.729 17.1143 125.48 17.1498C124.947 17.2279 124.482 17.3522 124.084 17.5227C123.687 17.6931 123.378 17.9239 123.158 18.2151C122.937 18.4992 122.827 18.8543 122.827 19.2805C122.827 19.8984 123.051 20.3707 123.498 20.6974C123.953 21.017 124.528 21.1768 125.224 21.1768Z" fill="#5E5992"/>
<path d="M140.453 7.6363L143.458 13.3572L146.536 7.6363H151.192L146.451 15.8181L151.32 23.9999H146.686L143.458 18.343L140.283 23.9999H135.595L140.453 15.8181L135.766 7.6363H140.453Z" fill="#5E5992"/>
</svg>
